<?xml version="1.0" encoding="UTF-8"?>
<svg version="1.1" viewBox="0 0 1720 1732" width="430" height="433" xmlns="http://www.w3.org/2000/svg">
<path transform="translate(0)" d="m0 0h1720v1732h-1720z" fill="#101010"/>
<path transform="translate(762,467)" d="m0 0 5 1 16 10 39 26 8 5 4-1 9-6 18-13 17-12 13-9 2-1 11 1 30 6 7 9 12 20 10 15 12 19 7 11 3 5-1 9-9 23v4l11 16 9 12 13 18-1 5-21 21-7 8-12 12-7 8-7 7 2 16 8 42 1 9-15 15-7 8-9 9-2 4-5-2-13-10-20-15-21-16-18-13-4-5-3-15-1-17 10-7 16-10 10-8 17-17 7-8 20-20v-2l-19 7-30 11-36 13-7 3-7-1-60-22-27-10-5-2 7 8 14 14v2h2l7 8 9 9v2h2v2h2l4 5 15 10 19 12 2 2-1 10-4 22-9 8-11 8-17 13-16 12-21 16-3 2-5-1-7-8-8-8-7-8-10-10 1-9 10-51 1-5-7-8-14-15-9-10-15-16-12-12 6-9 13-18 14-19 1-7-10-25v-6l9-15 10-15 10-16 16-25 5-7 9-3z" fill="#101010"/>
<path transform="translate(765,457)" d="m0 0 5 2 11 7 48 32 3 1 17-12 36-26 7-4 28 5 18 3 5 4 12 20 13 20 12 19 15 23 1 6-9 21-2 5 1 5 20 28 13 18 1 4-7 8-17 17-9 11-22 22-2 3 1 12 7 38 3 16-9 11-28 28-6 7-4-2-10-7-16-12-26-20-21-16-11-8-2-5-5-31v-8l27-18 13-9 12-13 2-3h2v-2l-10 3-44 16-9 1-29-10-26-10-4-1 6 7 15 15 21 14 14 9 1 1v11l-3 15-3 16-5 5-18 14-19 14-18 14-19 14-6 5-5-1-41-41-1-6 6-29 5-28v-6l-7-8-21-21-7-8-7-7v-2h-2l-7-8-6-7 1-4 10-14 14-19 10-14-1-6-8-21-1-2v-6l12-19 14-22 24-38 5-7 13-3 26-5zm-3 10-29 6-6 3-11 17-35 55-3 5 1 9 9 22-1 7-12 16-13 18-8 11 1 3 8 7 12 12 7 8 16 17 9 10 4 5-8 41-4 20 1 5 15 15 7 8 8 8 2 3 6-1 11-9 28-21 21-16 11-8 4-4 5-28-1-5-9-6-23-15-6-5-1-2h-2v-2h-2l-2-4-13-13-1-2h-2l-2-4-18-18-1-2 24 9 71 26 6-1 74-27 17-6-7 8-20 20-7 8-14 14-21 14-11 7-1 1 1 17 3 15 5 6 14 10 21 16 19 14 13 10 7 5h2l4-6 13-13 7-8 9-9-1-9-9-47-1-11 13-13 7-8 12-12 7-8 16-16-1-5-12-17-12-16-9-13 2-5 9-24v-6l-10-16-14-22-11-17-9-15-7-9-35-7h-6l-11 7-19 14-16 11-11 8-3 2-4-1-15-9-19-13-26-17-4-2z" fill="#08B4F7"/>
<path transform="translate(830,775)" d="m0 0 5 1 23 13 45 25 4 3-2 4-12 19-8 13-2 3h-3l-5-10h-3l-18 18-8 7-12 12-5-1-5-4v-2l-4-2-11-11-8-7-11-11-3 3-4 9-3-1-11-18-13-20 4-4 20-11 23-13z" fill="#101010"/>
<path transform="translate(657,1142)" d="m0 0h11l8 4 4 5 3 10 4-5 7-8 8-5 4-1h8l9 4 6 7 3 10 1 29v13l-1 18h-27l-1-59-2-8-6-1-7 6-4 9-1 7-1 46-26 1-1-1-1-62-3-6-1-1-7 1-6 7-3 7-1 53-1 1-24 1-3-2v-78h27l1 1v14l9-10 8-5z" fill="#00F9FE"/>
<path transform="translate(765,457)" d="m0 0 5 2 11 7 48 32 3 1 17-12 36-26 7-4 28 5 18 3 5 4 12 20 11 17-2 2-5-6-2-3h-2l-1 5-4-4-12-20-4-5-35-7h-6l-11 7-19 14-16 11-11 8-3 2-4-1-15-9-19-13-26-17-4-2-14 2-21 5-4 4-16 25-11 17-10 16-7 11-3 5 1 9 9 22-1 7-12 16-13 18-8 11v3l4 2 17 17 7 8 16 17 9 10 4 5-8 41-4 20 1 5 15 15 7 8h-3l-14-14-4-2-7-11h-4l-1 2 1-9 9-48v-6l-7-8-21-21-7-8-7-7v-2h-2l-7-8-6-7 1-4 10-14 14-19 10-14-1-6-8-21-1-2v-6l12-19 14-22 24-38 5-7 13-3 26-5z" fill="#119CEF"/>
<path transform="translate(799,1142)" d="m0 0h17l12 3 8 5 4 6 2 6v61l-26 1-1-1-1-9-14 9-10 3h-11l-10-5-6-7-3-7v-11l6-11 9-8 16-8 21-9h2l-2-10-4-4h-7l-8 3-9 7-8 11h-3l-3-13-1-5 23-6z" fill="#01F7FE"/>
<path transform="translate(871,1127)" d="m0 0h26l1 1v42l8-14 7-8 10-5 9-1 10 3 7 5 5 9 1 9v44l-1 11-26 1-1-1v-60l-3-8-2-2-7 1-8 9-5 10-3 11-1 38-1 1-23 1-4-2v-94z" fill="#02F5FE"/>
<path transform="translate(1304,1127)" d="m0 0h27l1 4v38l3-4 6-10 7-8 9-4 10-1 9 3 7 5 4 7 1 4v62h-27v-60l-2-7-3-3-7 1-5 4-8 16-3 11-2 38-26 1-1-2z" fill="#00F9FE"/>
<path transform="translate(1128,1142)" d="m0 0h14l12 3 11 6 5 6 4 8 1 3v9l-1 6-2 1h-55l3 21 5 12 4 3 3 1h10l8-4 10-9 6-8 4 1 3 10-1 5-14 7-11 3h-17l-14-4-11-7-5-4-7-11-4-13v-10l3-10 7-11 10-8 9-4z" fill="#01F7FE"/>
<path transform="translate(534,1142)" d="m0 0h13l12 3 12 7 7 10 1 3v18l-1 1h-43l-13-1 2 18 4 12 4 6 5 2h10l8-4 10-9 7-8 3 1 4 11-2 4-14 7-11 3h-17l-16-5-12-8-7-9-4-8-2-11 1-12 4-10 7-9 11-7 11-4z" fill="#01F7FE"/>
<path transform="translate(831,764)" d="m0 0 14 7 19 11 47 26 9 5-3 7-8 12-13 20-11 18-2 4-4-2-5-10v-2l-5 2-12 11-7 7-8 7-9 9-4-1-13-13-8-7-15-14-4-1-2 6-4 8-3-1-7-12-8-12-12-19-9-15v-2l54-30 24-14zm-1 11-22 12-23 13-25 14-4 4 11 17 14 22h2l6-12 7 6 11 11 8 7 7 7h2v2l6 5 5-1 17-17 8-7 8-8 6-5 3 5 3 6 4-1 7-12 12-19 4-5-2-4-19-10-24-14-26-14-3-2z" fill="#04D0FB"/>
<path transform="translate(325,1125)" d="m0 0h19l22 4 7 2v15h-4l-7-6-12-7-15-4h-7l-10 4-8 7-5 10-3 14v18l3 16 5 10 6 7 6 4 13 3h11l1-4v-43l1-2h27v44l-2 2-22 6-9 1h-17l-16-4-16-8-9-8-7-12-3-9-1-6v-10l3-12 5-9 7-8 11-7 12-5z" fill="#01F7FE"/>
<path transform="translate(735,633)" d="m0 0 5 1 27 10 55 20 8 3 6-1 27-10h7l5-1 1-2 3 3-4 4h-2v2h-2v2l-33 12-9 1-29-10-26-10-4-1 6 7 15 15 21 14 14 9 1 1v11l-3 15-3 16-5 5-18 14-19 14-18 14-19 14-6 5-5-1-41-41-1-6h2v-2l4-1 7 10v2l5 2 14 14 5 3 6 7 6-1 11-9 28-21 21-16 11-8 3-3 5-28-1-5-19-12-12-8-7-6v-2h-2v-2h-2l-7-8-9-9v-2h-2l-7-8-14-14z" fill="#07B5F7"/>
<path transform="translate(979,1127)" d="m0 0h88l2 1v15h-2v-2l-4-2-8-5-8-2h-9v91l-26 1-2-1v-92l-15 2-9 5-6 5h-2v-15z" fill="#00FAFE"/>
<path transform="translate(765,457)" d="m0 0 5 2 11 7 48 32 3 1 17-12 36-26 7-4 28 5 18 3 5 4 12 20 11 17-2 2-5-6-2-3h-2l-1 5-4-4-12-20-4-5-35-7h-6l-11 7-19 14-16 11-11 8-3 2-4-1-15-9-19-13-26-17-4-2-14 2-21 5-4 4-14 22-1-4 2-4-6 1 1 3-3 2-2 1v3h-2v3h-2l1 4-6 5-6 9-1-2 12-19 14-22 9-14 3-2 25-5z" fill="#3771F5"/>
<path transform="translate(459,1142)" d="m0 0 10 1 2 1-2 11-2 5-7-1h-10l-7 4-6 8-4 8-2 6-1 38-26 1-2-2v-78h27l1 1v31l7-15 7-10 9-7z" fill="#03F3FE"/>
<path transform="translate(1241,1141)" d="m0 0 14 1 16 4 6 3 1 2-2 5-1 7h-3l-9-10-12-6h-11l-8 7-4 9-2 10v21l4 16 5 8v2l9 2 7-1 8-4 5-5h2l2-4 7-9 3 3 3 9-1 5-15 7-10 3-11 1-15-3-14-7-9-8-6-10-3-11v-13l4-12 7-10 10-7 13-4z" fill="#01F8FE"/>
<path transform="translate(943,447)" d="m0 0h16l6 4 112 112 2 6v38l7 6 2 4v7l-4 7-4 3-8 1-6-3-4-5-1-2v-7l4-6 3-4v-39l-6-7-8-7v-2l-4-2v-2l-3-1-5-6-66-66-7-8-10-10-18-6-3-2v-2z" fill="#119BEF"/>
<path transform="translate(895,871)" d="m0 0h8l5 3 4 5v11l-6 7-4 2-9-1-11 9-11 11 2 4 26 26 7 8 10 8 2 8v39l3 5 4 5 1 9-4 7-5 3h-9l-5-3-4-7 1-9 7-9v-41l-7-8-28-28v-2l-4-2-6-7-5-5v-2l8-7 8-8 8-7 4-5v-9l4-6z" fill="#02E5FD"/>
<path transform="translate(762,871)" d="m0 0 8 1 5 4 3 7-1 7 7 7 2 1v2l4 2 16 16-3 5-13 13-5 4-7 8-20 20h-2v46l5 4 3 7-2 9-4 5-4 1h-8l-5-3-4-6-1-7 4-7 4-2 1-3 1-46 46-46-3-5-15-15-3-2-10 1-6-4-4-5-1-9 4-6 4-3z" fill="#04E1FC"/>
<path transform="translate(799,1142)" d="m0 0h17l12 3 8 5 4 6 2 6v61l-26 1-1-1-1-61-2-12-4-4h-7l-8 3-9 7-8 11h-3l-3-13-1-5 23-6z" fill="#00FAFE"/>
<path transform="translate(704,447)" d="m0 0h13l7 1 1 3-11 4-8 2-13 12-17 17-7 8-73 73-1 2v40l6 7 1 2v6l-5 8-7 3-7-1-5-3-3-5v-10l5-6 4-1 1-44 117-117z" fill="#129BEF"/>
<path transform="translate(914,310)" d="m0 0h8l8 4 3 3 72 1 10 9 26 26 8 7 4 5 4 1h7l8 5 2 4v9l-5 7-4 2h-7l-7-3-3-4-1-13-25-25-7-8-12-12-69-1-5 5-4 3-8 1-6-3-4-5-2-4 1-7 4-5z" fill="#3871F6"/>
<path transform="translate(740,310)" d="m0 0h9l6 4 2 3v9l-4 6-4 3h-11l-6-5-1-3h-68l-5 3-18 18-3 4h-2l-1 3-6 5-7 8-5 5v9l-3 6-4 4-4 1h-7l-5-3-4-6-1-5 3-8 5-4 7-2 5 1 8-7 41-41 74-1 5-5z" fill="#3871F6"/>
<path transform="translate(679,394)" d="m0 0h76l8 7 51 51 1 2v15l-2 1-6-4-3-9-7-8-9-9-7-8-27-27-2-1-30-1h-38l-5 3-11 11-4 5-1 9-5 8-6 3h-6l-6-4-4-6v-8l5-8 9-3 8 1 19-19z" fill="#3871F6"/>
<path transform="translate(908,394)" d="m0 0h76l8 7 13 13h12l6 3 4 6v9l-4 6-4 3-7 1-8-4-4-8-2-9-8-8-7-8-2-1-68-1-5 3-45 45-6 10-5 7h-3l-1-4v-9l6-8 51-51z" fill="#3871F6"/>
<path transform="translate(606,1144)" d="m0 0h27l1 1-1 7-1 9 4 1-1 7-1 53-1 1-24 1-3-2z" fill="#02F5FE"/>
<path transform="translate(927,1142)" d="m0 0 10 1 8 4 5 5 4 7 1 9v44l-1 11-26 1-1-1v-60l-3-8-2-2-10 1v-3l4-5z" fill="#02F7FE"/>
<path transform="translate(983,503)" d="m0 0 4 2 6 7 5 5 5 4 7 8 41 41 1 2 1 94 3 5 3 3 2 3v9l-3 6-4 3-8 1-7-3-4-6v-11l4-5 4-4v-90l-9-10-32-32-10-14-9-15z" fill="#129AEF"/>
<path transform="translate(706,1142)" d="m0 0h8l9 4 6 7 3 10 1 29v13l-1 18h-27v-70l-2-4h-2l1-3h2z" fill="#00FBFE"/>
<path transform="translate(1362,1142)" d="m0 0 10 1 8 5 5 5 3 8v62h-27v-60l-1-11-4-4v-2h3l1-3z" fill="#00FAFE"/>
<path transform="translate(681,501)" d="m0 0h2l-2 4-11 17-11 14-37 37-2 3v90l2 4 5 5 2 5-1 7-7 8-9 1-6-3-3-4-2-9 3-6 5-5 1-3 1-95 43-43h2l2-4h2l2-4h2l1-3 5-5h2l2-4z" fill="#04B9F7"/>
<path transform="translate(666,686)" d="m0 0 4 2 5 5v46l-50 50v33l5 3 3 5v9l-6 8-3 1h-10l-6-5-2-5 1-10 5-5 2-1 1-36 47-47 3-5z" fill="#02D3FC"/>
<path transform="translate(995,686)" d="m0 0h2v48l7 8 8 7 5 5v2l4 2v2l4 2 12 12v2l4 2v2l4 2 3 4v31l1 5 6 5 2 4v7l-4 7-2 2-4 1h-9l-6-5-2-5v-7l3-5 5-4v-34h-2l-7-8-41-41v-44l4-6z" fill="#04CFFB"/>
<path transform="translate(924,421)" d="m0 0h42l8 7 59 59 12 1 6 4 3 5v8l-3 6-6 4h-7l-8-5-3-5v-12l-4-2-8-8v-2l-3-1-7-8-40-40-3-2h-33l-6 4-11 11-4 1-5-3 6-7 10-10z" fill="#3871F6"/>
<path transform="translate(677,777)" d="m0 0 4 1 2 1-1 8v123l-3 7-7 6 1 8-4 6-6 5-7 1-6-4-4-5-1-2v-7l6-8 4-2 12-2 4-4 1-40v-87z" fill="#01EBFD"/>
<path transform="translate(983,777)" d="m0 0 5 2 3 5 1 127 4 3 12 1 6 4 3 4 1 7-3 8-5 4-8 1-6-3-4-4-1-3-1-12-7-6-1-2-1-125-1-9z" fill="#00D5FC"/>
<path transform="translate(697,421)" d="m0 0h42l8 7 5 5 1 3 4 2 3 3-1 3-9 1-14-14-3-1h-32l-8 7-53 53-4 5v9l-4 6-6 5h-7l-7-4-3-5-1-7 6-9 4-2h12l17-17 5-6 8-7 7-7 6-7 21-21z" fill="#3871F6"/>
<path transform="translate(637,380)" d="m0 0 9 1 6 5 2 3v8l-4 7-4 3-13 2-43 43-2 3v9l-3 6-6 4h-9l-6-4-4-8 1-6 7-8 2-1h9l5-3 42-42 1-6 1-8 6-7z" fill="#3871F6"/>
<path transform="translate(1019,380)" d="m0 0 8 1 6 4 3 5-1 12 4 2 42 42 4 1h7l6 4 4 6v7l-4 7-4 3h-9l-6-3-3-4-2-14-44-44-14-2-6-7-1-2v-9l4-6z" fill="#3871F6"/>
<path transform="translate(646,776)" d="m0 0h8l6 3 3 5 1 7-3 6-5 5-1 54-3 5-8 8-2 10-4 6-5 3h-10l-5-5-3-6 1-8 7-6 2-1 11-1 5-3 3-1 1-5v-50l-7-6-1-2v-9l4-6z" fill="#05CCFB"/>
<path transform="translate(1010,776)" d="m0 0h7l7 5 3 7-1 6-6 7h-2v52l6 7 2 1 12 1 6 4 4 6-1 8-4 6-4 2h-10l-6-5-2-4-2-10-9-9-2-7-1-51-5-4-3-7 1-8 7-6z" fill="#04CFFB"/>
<path transform="translate(1057,698)" d="m0 0h7l6 4 4 6v6l-1 3 26 26 2 3 1 30 7 8 1 2v7l-4 6-7 4-8-1-5-4-3-6v-7l7-8 1-1v-26l-7-8-16-16-6-1-8-1-5-5-2-5v-7l3-5 4-3z" fill="#08B4F7"/>
<path transform="translate(599,698)" d="m0 0h7l7 4 3 4v9l-4 7-3 2-12 1-10 9-14 14-1 2v28l4 2 4 6v6l-5 8-6 3-8-1-6-5-3-9 4-8 5-2 1-33 26-26 1-5v-6l4-6z" fill="#07B5F7"/>
<path transform="translate(1045,451)" d="m0 0 8 1 6 4 3 7-1 8 41 41 2 3v7l4 2 4 6 1 6-3 7-6 5-7 1-6-2-4-5-2-6 1-6 4-6 4-3-1-4-10-10-5-6-21-21-5-2-7 1-6-3-4-6v-10l4-6z" fill="#129BEF"/>
<path transform="translate(929,351)" d="m0 0 8 2 5 4 1 2v11l-6 7-4 2-7-1-7-4-4-4h-33l-8 7-7 8v8l-6 9-7 3-7-1-5-5-2-3v-10l5-6 5-2h9l7-6 7-8 5-4 41-1 2-4 4-3z" fill="#3871F6"/>
<path transform="translate(730,351)" d="m0 0 8 1 8 7 38 1 6 4 7 8 6 5 3 1h7l8 5 2 3v10l-6 7-6 2-7-1-6-7-1-2-1-10-11-12-3-2-5-1h-32l-2 5-8 4-7-1-5-3-4-8 1-7 3-5 4-3z" fill="#3871F6"/>
<path transform="translate(613,451)" d="m0 0 8 1 5 4 3 9-3 8-7 6-11-1-36 36-3 4 1 4 5 4 3 6-1 8-3 5-5 3-6 1-6-2-5-5-2-6 1-7 8-8 1-8 7-6 7-8 7-7 8-7 8-9 4-4v-10l5-8z" fill="#109CEF"/>
<path transform="translate(926,633)" d="m0 0 2 1-7 8-20 20-7 8-15 15-21 14-11 7 1 17 3 15 4 5 6 4v1h-10l3 5-4-2-7-5-2-5-5-31v-8l27-18 13-9 12-13 2-3h2v-2l-10 3-8 3-3-1h2v-2l4-2v-3h-2l-5 2-4-1 3-2 30-11 22-8z" fill="#09B1F6"/>
<path transform="translate(740,901)" d="m0 0h7l8 6 2 9-3 7-6 5-10 1-8 7-15 14-7 9 2 7 4 2 3 4 1 6-3 8-6 5-7 1-8-4-4-8 1-8 5-6 3-2v-10l7-8 15-16 8-8v-11l4-6 4-3z" fill="#01EAFD"/>
<path transform="translate(916,901)" d="m0 0h8l6 4 4 8-1 8 5 6 2 1v2h2l7 8 5 4v2h2l7 8 1 7 1 6 6 5 2 8-3 8-5 5-8 1-6-3-4-5-2-4v-6l5-7 5-5-2-6-9-9-7-8-7-7-4-3-12-1-5-5-3-6 1-8 4-5z" fill="#02E7FD"/>
<path transform="translate(809,945)" d="m0 0h8l7 5 3 6-1 7-5 7-3 2h-11l-8 7-3 1-2 4-2 2v4l5 4 3 6-2 9-5 6-3 1h-8l-5-3-5-10 1-5 5-6 2-1 3-9 7-8 9-10v-11l8-7z" fill="#03E6FD"/>
<path transform="translate(846,945)" d="m0 0h8l6 4 4 7 1 9 14 15 2 3 2 7 7 8 1 7-5 8-6 3h-8l-5-5-3-4-1-7 5-7 3-2 1-4-6-7-8-7-4-1h-10l-6-7-2-4v-6l5-7z" fill="#02F6FE"/>
<path transform="translate(547,566)" d="m0 0h7l7 5 2 3v11l-6 7-8 1-6 1-10 10-1 2v8l-3 7-6 5-7 1-7-3-4-5-1-3v-7l3-5 5-4 2-1h9l8-7 5-5v-9l3-7 3-3z" fill="#0F9DEF"/>
<path transform="translate(1109,566)" d="m0 0h8l5 3 4 5 1 8-1 4 12 12 13 2 6 5 2 4-1 9-4 6-6 3-9-1-6-7-1-2v-11l-13-13h-11l-5-3-3-6v-10l5-6z" fill="#109DEF"/>
<path transform="translate(1071,649)" d="m0 0h7l6 3 3 4 1 9-1 6 4 2 10 9h10l6 4 3 5v9l-4 6-5 3-6 1-7-3-5-9 1-10-3-1-7-8-3-2-12-2-6-5-2-4v-8l3-5z" fill="#06B7F7"/>
<path transform="translate(957,497)" d="m0 0 2 2 3 5 3 3h2l11 18 11 17 7 11-1 6-8 19-2 5 1 5 20 28 1 2-2 2-3-1 3 5v2l2 1 2 4-1 2 2 2-2 4-3-7-12-16-13-18-7-10 2-5 9-24v-6l-10-16-14-22-6-9 1-7h2z" fill="#139AF0"/>
<path transform="translate(585,649)" d="m0 0h7l7 4 3 6v6l-5 8-2 2-14 2-7 7-5 7 1 7-3 6-6 5-7 1-7-3-4-6-1-8 3-6 5-4 3-1h9l8-7 5-6v-11l1-3h2v-2z" fill="#06B8F7"/>
<path transform="translate(348,1173)" d="m0 0h27v44l-2 2-18 5h-8v-49z" fill="#00FCFE"/>
<path transform="translate(764,835)" d="m0 0 3 3 6 8h2l6 10 2 1 1-5 5-8 7 6 11 11 8 7 7 7 2 1v2l4 2 2 2h4l17-17 4-1 7-7h2l1-2 1 1-1 9-15 15-8 7-9 9-4-1-13-13-8-7-15-14-4-1-2 6-4 8-3-1-7-12-7-11v-6l-2-4z" fill="#03E4FD"/>
<path transform="translate(879,933)" d="m0 0 5 2 6 4 9 9 7 8 10 8 2 8v39l3 5 4 5 1 9-4 7-5 3h-9l-5-3-4-7 1-9 7-9 1-46-3-5-5-5-8-5-6-6-3-1-1-4h-2z" fill="#01F4FE"/>
<path transform="translate(801,752)" d="m0 0 4 1 2 1-1 3-28 21-21 16-19 14-2 2-5-1-41-41-1-6h2v-2l4-1 7 10v2l5 2 14 14 5 3 6 7 6-1 11-9 36-27 2 1h3l7-3z" fill="#03D0FB"/>
<path transform="translate(954,807)" d="m0 0h3v61l-2 5-3 2v8l-3 7-6 5-7 1-6-3-5-6-1-2v-7l4-6 5-4h13l1-1 1-54z" fill="#02D3FC"/>
<path transform="translate(706,806)" d="m0 0 4 2 5 5 1 55h13l6 4 4 6v7l-4 6-5 4-6 1-6-2-6-7-1-13-4-2-1-3z" fill="#05CDFB"/>
<path transform="translate(1017,661)" d="m0 0h2l1 50 6 5 13 3 6 7 1 2v7l-4 7-4 3-8 1-7-3-3-5-1-9v-5l-8-8-1-2v-44z" fill="#06B7F7"/>
<path transform="translate(644,661)" d="m0 0 7 6 2 8v39l-7 8-2 2v11l-4 7-7 4h-6l-6-4-4-7v-7l5-8 5-2 9-1 6-4 1-2z" fill="#09B3F7"/>
<path transform="translate(812,1164)" d="m0 0 3 1-1 44-8 6-2 1h-6l-6-4-5-10v-11l4-11 7-8 11-7z" fill="#101011"/>
<path transform="translate(658,646)" d="m0 0 8 6v3l4 2v2l4 1 6 7 8 4 9 10 12 13 3 5-5 24-7 36 1 5 15 15 7 8h-3l-14-14-4-2-7-11h-4l-1 2 1-9 9-48v-6l-7-8-17-17v-2h2l-3-6-5-5-1-3-4-2-2-4h-2v-2h-2z" fill="#07B5F7"/>
<path transform="translate(854,747)" d="m0 0 10 2 18 14 19 14 17 13 11 8v3l3-3h3l2-4h2l2-4h2v-2h2v-2l3-1v2l5-1-2 4-14 14-6 7-4-2-10-7-16-12-26-20-21-16-3-4v-2z" fill="#03D1FB"/>
<path transform="translate(1046,588)" d="m0 0 3 3 2 33v46l7 5 3 2v9l-3 6-4 3-8 1-7-3-4-6v-11l4-5 4-4 1-14 1-58z" fill="#05B9F7"/>
<path transform="translate(985,860)" d="m0 0 2 2v8l1 1 1 37 7 6 12 1 6 4 3 4 1 7-3 8-5 4-8 1-6-3-4-4-1-3-1-12-7-6v-38l1-16z" fill="#02E7FD"/>
<path transform="translate(1131,1146)" d="m0 0h8l5 4 4 10 1 6v10l-1 5h-24l-7-1v-8l3-11 4-8 4-5z" fill="#101011"/>
<path transform="translate(537,1146)" d="m0 0h7l5 4 4 10 1 15-1 6h-25l-6-1v-8l3-12 6-10z" fill="#101011"/>
<path transform="translate(1142,1144)" d="m0 0h9l14 7 5 6 4 8 1 3v9l-1 6h-28l3-1-1-16-3-12-5-9z" fill="#01F8FE"/>
<path transform="translate(1080,730)" d="m0 0 5 2 6 7 5 4 3 5v24l1 6 5 1 4 5 1 2v7l-4 6-7 4-8-1-5-4-3-6v-7l7-8 1-1v-26l-5-10-5-3-2-4z" fill="#02D3FC"/>
<path transform="translate(681,501)" d="m0 0h2l-2 4-11 17-11 14-40 40-5-1-1 8v43l-1 34h-1v-89l43-43h2l2-4h2l2-4h2l1-3 5-5h2l2-4z" fill="#1795F0"/>
<path transform="translate(552,1147)" d="m0 0 13 1 8 6 5 8 1 3v18h-26v-15l-2-12-1-7h2z" fill="#00FAFE"/>
<path transform="translate(613,451)" d="m0 0 8 1 5 4 3 9-3 8-7 6-11-1-8 8v-3l2-3-7 4-12 12-4 3h-2l-1 4-4 5-5 2-1 2-4 1-1 6h-1v-6l7-6 7-8 7-7 8-7 8-9 4-4v-10l5-8z" fill="#3771F5"/>
<path transform="translate(1045,451)" d="m0 0 8 1 6 4 3 7-1 8 36 36-2 2-25-25-3-1v-2h-2l2 5-2 2-8-8-5-2-7 1-6-3-4-6v-10l4-6z" fill="#3771F5"/>
<path transform="translate(933,566)" d="m0 0 2 1-12 10-19 14-7 4h-6l-5-4-9-15v-1l35-6z" fill="#129BEF"/>
<path transform="translate(649,841)" d="m0 0h2l1 5v15l-8 8-2 10-4 6-5 3h-10l-5-5-3-6 1-8 7-6 2-1 11-1 5-3 3-1 2-14 2 1z" fill="#03D0FB"/>
<path transform="translate(926,633)" d="m0 0 2 1-7 8-20 20-5 6-4 2-8 8-1-3-3 1v-6l8-8 2-3h2v-2l-10 3-8 3-3-1h2v-2l4-2v-3h-2l-5 2-4-1 3-2 30-11 22-8z" fill="#129BF0"/>
<path transform="translate(729,567)" d="m0 0h7l46 7 4 2-8 13-6 6h-6l-11-7-13-10-12-9z" fill="#109CEF"/>
<path transform="translate(677,777)" d="m0 0 4 1 2 1-1 8-1 95h-1l-1-34-1-8h-2l-1 15v15l-1 26-1 8h-1v-122z" fill="#06C9FA"/>
<path transform="translate(565,756)" d="m0 0 5 1 1 17 1 4 4 2 4 6v6l-5 8-6 3-8-1-6-5-3-9 4-8 5-2 1-3 1-16z" fill="#02D4FC"/>
<path transform="translate(955,948)" d="m0 0 3 2v2h2v2h2v2h2v7l5 5 3 4 1 6-3 8-5 5-8 1-6-3-4-5-2-4v-6l5-7 5-5h2l1-8-3-4z" fill="#01F6FE"/>
<path transform="translate(666,686)" d="m0 0 4 2 5 5v46l-4 1h-6v2h-4l-1 3-6 5-4 7-3 3h-2l-2 4h-2l-2 4-8 5-14 14-1 33h-1v-34l47-47 3-5z" fill="#0AAFF6"/>
<path transform="translate(943,447)" d="m0 0h16l6 4 44 44-2 2-9-9-7-6-5-6-7-6v-2l-5-1 1 4 5 4v2h2l4 5 6 5v2h2v2h2l4 4v2h2v2l3 1 2 1v2h2l1 4 3 1 1 3h2v2h2v2h2v2h2l2 4h2l-1 3-7-6-42-42-7-8-10-10-18-6-3-2v-2z" fill="#3771F5"/>
<path transform="translate(846,945)" d="m0 0h8l6 4 4 7 1 10h-2l-2-3h-4l4 10 5 3 3 4-1 2-10-9-4-1h-10l-6-7-2-4v-6l5-7z" fill="#03E5FD"/>
<path transform="translate(747,976)" d="m0 0h4l1 2v31l1 6 5 3 3 3h2l1 6-2 7-4 5h-10l-4-7 1-4 2-2-1-7-1-2 1-3z" fill="#00FBFE"/>
<path transform="translate(895,871)" d="m0 0h8l5 3 4 5v11l-6 7-4 2-6-1-3-2 5-1-1-5-1-1h-7l-4 2v-10l4-6z" fill="#03D1FC"/>
<path transform="translate(785,988)" d="m0 0 3 1 6 7 4 6v7l-5 6-3 1h-8l-5-3-5-10 1-5 5-6 6-3z" fill="#00FCFE"/>
<path transform="translate(704,447)" d="m0 0h13l7 1 1 3-11 4-8 2-13 12-4 3-3-2v2l-6 5h-2l-1 3-8 7-3 3h-2v2l-5 3h-2v2h-2v2l-7 6-2-1 56-56z" fill="#3771F5"/>
<path transform="translate(459,1142)" d="m0 0 10 1 2 1-2 11-2 5-7-1h-10l-7 4-6 8-4 8-2 3v-3h-3v-6l2 3 7-15 7-10 9-7z" fill="#01EAFD"/>
<path transform="translate(1035,863)" d="m0 0 7 1 5 6 1 6-3 7-4 4-2 1h-10l-6-5-1-6 3-2h5l-2-10z" fill="#02E8FD"/>
<path transform="translate(762,871)" d="m0 0 8 1 5 4 3 7-1 8-6-3-7 1-7-1 1 9-6-5-2-5v-6l4-6 4-3z" fill="#04CFFB"/>
<path transform="translate(325,1125)" d="m0 0h19l22 4 7 2v15h-4l-7-6-12-7-15-4h-7l-10 4-2 1-2-3h-2l-1-3z" fill="#01F4FE"/>
<path transform="translate(572,1200)" d="m0 0 3 1 4 11-2 4-14 7-11 3h-17l-8-2 3-2 7-1h10l8-4 10-9z" fill="#03EEFD"/>
<path transform="translate(916,901)" d="m0 0h8l6 4 4 8-1 8 1 2-4-2v-8l-1-2-7 7-9 1 2 8h10v1h-11l-5-5-3-6 1-8 4-5z" fill="#03D1FC"/>
<path transform="translate(799,1142)" d="m0 0h17l5 1-1 2h-4v9l-1 6h-1l-2-10-4-4h-7l-8 3-9 7-8 11h-3l-3-13-1-5 23-6z" fill="#04E0FC"/>
<path transform="translate(1166,1200)" d="m0 0 4 1 3 10-1 5-14 7-11 3h-17l-4-2 5-1 1-2h10l8-4 10-9z" fill="#03E2FC"/>
<path transform="translate(1241,1141)" d="m0 0 14 1 16 4 6 3 1 2-2 5-1 7h-3l-9-10-12-6h-11l-7 5-2-4-8-3 4-2z" fill="#02F0FD"/>
<path transform="translate(1275,1199)" d="m0 0 3 3 3 9-1 5-15 7-10 3-11 1-15-3 4-1 11-1 7-1 8-4 5-5h2l2-4z" fill="#04E2FC"/>
<path transform="translate(704,955)" d="m0 0 1 2h2l1-2v6l2 5 4 2 3 4 1 6-3 8-6 5h-5l-4-5 1-4 4-4 1-4-5-5v-10z" fill="#00FAFE"/>
<path transform="translate(995,686)" d="m0 0h2v50h-2l-4-9v-7h-2v9h-1v-34l4-6z" fill="#0FAAF7"/>
<path transform="translate(954,807)" d="m0 0h3v61l-2 5-2-2 1-24-1-14h-4v19h-1v-39z" fill="#0DBCF9"/>
<path transform="translate(714,873)" d="m0 0h2l2 8 8 2 2-6 7 1 1 1v11l-6 5-6 1-6-2-5-6v-12z" fill="#01EBFD"/>
<path transform="translate(1071,649)" d="m0 0h7l6 3 3 4 1 9-2-2-3-7h-11l1 2 4 1h3l-1 7-9 2-3 5-5-5-1-2v-8l3-5z" fill="#129BEF"/>
<path transform="translate(764,835)" d="m0 0 3 3 6 8h2l7 12 2-1 1-3 4 1v7l-6 12-3-1-7-12-7-11v-6l-2-4z" fill="#02E6FD"/>
<path transform="translate(979,1127)" d="m0 0h83v1h-54l1 3-14 2-9 5-6 5h-2v-15z" fill="#11C1FA"/>
<path transform="translate(700,952)" d="m0 0h1l1 17 5 5-2 6-4 3 1 4 4 5-7-1-5-3-4-8 1-8 5-6 3-2v-10z" fill="#03E4FD"/>
<path transform="translate(798,7)" d="m0 0 6 2h5l1 4-7 2-14 1-5 2-10-1-9 1-7-3 2-4 7 1 4-2h18l7-2z" fill="#161A21"/>
<path transform="translate(787,931)" d="m0 0 4 1-1 4-5 4-7 8-19 19-3-2 2-5 6-8 3-1 2-4h2l2-4 11-11z" fill="#05EFFE"/>
<path transform="translate(585,649)" d="m0 0h7l7 4 3 6v6l-5 8h-3l3-7 1-1v-8l-5-4-11 1v4l9 1 3 3 1 5-3 3-5-2v-2h-2l-1-5h-6v2h-2l-1 2v-7l1-3h2v-2z" fill="#1597F0"/>
<path transform="translate(983,777)" d="m0 0 5 2 3 5v125h-1l-1-115-1-1-1-11h-4v79h-1l-1-73-1-9z" fill="#2684F3"/>
<path transform="translate(945,878)" d="m0 0h5l2 5-3 7-6 5-7 1-5-2 1-9 6-3 4-3z" fill="#03E7FD"/>
<path transform="translate(914,643)" d="m0 0 3 1-2 4-14 14-1 2-5-1-1-8h-7l2-4 7-2v-2l7 1 7-3z" fill="#05B9F7"/>
<path transform="translate(746,966)" d="m0 0h1v48l-1 4 2 4-1 5-2 2 1 5 2 5h6v1h-8l-5-3-4-6-1-7 4-7 4-2 1-3z" fill="#05D6FB"/>
<path transform="translate(740,901)" d="m0 0h7l8 6v3l-4-2-13 1h-2l-1 6-6 10-16 16v-3l16-16v-11l4-6 4-3z" fill="#0AC5FB"/>
<path transform="translate(789,844)" d="m0 0 7 6 8 8-1 7-1 3-4-2-5-5-5-2 1-4-4-1-1 5-3-1 2-1 1-5z" fill="#05CDFB"/>
<path transform="translate(949,833)" d="m0 0h4l2 14-1 24-2 4-5-1z" fill="#00EDFD"/>
<path transform="translate(1357,1143)" d="m0 0 3 1-1 2h-3v2l4 2 1 6-4-2-1-1-7 1-5 4-8 16-2 6-1-4 1-2h-3v-5h2l7-13 8-9z" fill="#04DDFC"/>
<path transform="translate(983,503)" d="m0 0 4 2 6 7 5 5 5 4 7 8 15 15 2 1v3l-4-2v-2l-4-2-9-9-4-3-4-5-4-2-4 1-11-18z" fill="#3276F5"/>
<path transform="translate(1010,776)" d="m0 0h7l7 5 3 7-1 6-2-1-1-9h-10l-3 6-5-2-3-3h-2l2-4 5-4z" fill="#07B5F7"/>
<path transform="translate(1064,1127)" d="m0 0 5 1v15h-2v-2l-4-2-8-5-8-2-9-1v-1l7-2z" fill="#04E8FC"/>
<path transform="translate(702,1143)" d="m0 0 3 1-4 5h2l3 4-1 11h-1l-2-8-6-1-7 6-3 6-1-2-3-1-1-2v-6h1l1 5 4-5 7-8z" fill="#04E1FC"/>
<path transform="translate(652,635)" d="m0 0h2l1 4 4 2 17 17 7 8 2 3h-3l-8-7v-2l-4-1-4-4v-3l-4-2-3-3-4-1v-2h-2v-2l-5-1v-5z" fill="#119FF1"/>
<path transform="translate(534,1142)" d="m0 0h13l12 3 4 3-11-1v2h-2l-1 3-5-5h-7l-5 3-6-2h-6l-1-2 9-3z" fill="#04E1FC"/>
<path transform="translate(1093,522)" d="m0 0 4 4 5 3 3 5-2 5-5 3-3-5-1-7h-6l-1 10-2-4 1-6 4-6z" fill="#3871F6"/>
<path transform="translate(831,764)" d="m0 0 14 7 17 10-4 1-15-8-10-6-3-2-1 3h-2l-2 5-6 2-4 3-5-2 3-3 14-8z" fill="#08B4F7"/>
<path transform="translate(656,745)" d="m0 0 2 1-4 4-4 7-3 3h-2l-2 4h-2l-2 4-8 5-14 14-1 33h-1v-34l5-5z" fill="#11A9F7"/>
<path transform="translate(559,521)" d="m0 0 1 4h2v2h2v2h2l4 7-7 6-2-2-2-4v-6l-6 2-2 4-1-4 3-6z" fill="#3871F6"/>
<path transform="translate(1148,602)" d="m0 0 5 2 3 6v12l-4 3-4-1 1-9-4-6v-5z" fill="#04BAF7"/>
<path transform="translate(646,776)" d="m0 0h8l6 3 3 5-1 4v-2h-2l-5-5-5-2h-3l-2 5-3 1-1 9h2l-1 5-5-5v-9l4-6z" fill="#06B7F7"/>
<path transform="translate(459,1142)" d="m0 0 10 1 2 1-2 11-8-1-6-3-1-4 1-4z" fill="#01F7FE"/>
<path transform="translate(893,658)" d="m0 0h2l1 5 3 1-4 4-7 6-5 4v-3l-3 1v-6z" fill="#0EA0F0"/>
<path transform="translate(447,1148)" d="m0 0 2 1-4 5 1 4 4 1-7 4-6 8-4 8-2 3v-3h-3v-6l2 3 7-15 7-10z" fill="#07D9FC"/>
<path transform="translate(348,1173)" d="m0 0h27v44h-1l-1-40-1-2h-23v43h-1l-1-43z" fill="#0DC3FA"/>
<path transform="translate(879,941)" d="m0 0 4 1v2l4 1 7 7 6 3 3 3v2l4 2 2 4-1 5-29-29z" fill="#0AD6FC"/>
<path transform="translate(325,1125)" d="m0 0h19l7 1v1l-7 1v2l-16-1-10 4-2 1-2-3h-2l-1-3z" fill="#0DB0F7"/>
<path transform="translate(636,876)" d="m0 0h4l1 5-5 6-8 1-4-1-1-7 4-1 7-1z" fill="#01EAFD"/>
<path transform="translate(851,1724)" d="m0 0 5 1 31-1h5l1 2-11 1-10 1-4-1-9 1-13-1h-20l1-2h15z" fill="#161A21"/>
<path transform="translate(590,652)" d="m0 0 5 1 4 4v8l-2 3h-2l-3-7-4-2h-7l1-5z" fill="#03BCF7"/>
<path transform="translate(882,894)" d="m0 0h3l-2 4-6 7h-2l-1 4-3 3-8 3-2 8-4-4v-2l8-7 8-8 8-7z" fill="#00DAFD"/>
<path transform="translate(1241,1141)" d="m0 0 14 1v1l-7 2v1l-10 2-5 4-2-4-8-3 4-2z" fill="#05DFFC"/>
<path transform="translate(952,966)" d="m0 0 2 3-2 9-1 4 3 4v4l-4-2-5-8v-6l5-7z" fill="#05DDFC"/>
<path transform="translate(649,841)" d="m0 0h2l1 5v15l-6 6-4-1 1-5 3-4 2-13z" fill="#02E8FD"/>
<path transform="translate(308,1129)" d="m0 0h4v2l3-1 1 4-6 5-4-3h-6l-7 5-3-1 5-5z" fill="#03E4FC"/>
<path transform="translate(812,1160)" d="m0 0h2l1 4-9 4-12 8v-5l-4 1-2-2z" fill="#04DEFB"/>
<path transform="translate(553,1175)" d="m0 0h1v7l24 1v1h-43l-12-1 1-3 29 1z" fill="#0EBCF8"/>
<path transform="translate(1128,1142)" d="m0 0h14l6 1v1l-7 2 1 2-3-1h-8l-7 2-8-4z" fill="#03E0FC"/>
<path transform="translate(663,24)" d="m0 0h5l2 2v3l-7 3-15 2v-2l7-5z" fill="#161A21"/>
<path transform="translate(62,896)" d="m0 0 2 1 2 7 3 5-2 5-1 13-2-2-2-10h-2l-1-5 3-6z" fill="#151920"/>
<path transform="translate(1257,1218)" d="m0 0 2 1v3l3 2-7 2-11 1-15-3 4-1 11-1 7-1z" fill="#06CEFB"/>
<path transform="translate(9,657)" d="m0 0 3 1-1 9h-5l-2 12-4 1v-14l4-2h2z" fill="#161A21"/>
<path transform="translate(553,1218)" d="m0 0 2 1-2 4 3 2-4 1h-17l-8-2 3-2 7-1h10z" fill="#0DBBF9"/>
<path transform="translate(913,1148)" d="m0 0 2 1-3 4 2 2-7 8-5 10-2-2-4 2v-5l2 2 8-14z" fill="#0CC5FA"/>
<path transform="translate(1050,608)" d="m0 0h1l1 11 1 47 3 5 3 3-2 2-7-6z" fill="#0DA1EF"/>
<path transform="translate(867,994)" d="m0 0 3 2-1 5 1 7 6 6 4 2h-8l-5-5-3-4-1-7z" fill="#08D6FB"/>
<path transform="translate(851,865)" d="m0 0 2 3-6 7h-2l-1 4-5 5-3 2h-5l-1-3 4-1 5-5z" fill="#05CDFB"/>
<path transform="translate(902,1018)" d="m0 0 5 5 1 3-3 3 2 6v4l-4-2-4-7 1-9z" fill="#04E1FC"/>
<path transform="translate(347,1218)" d="m0 0h1v5l3 2-9 1h-17l-10-2v-1l10-1 4-1 6 1h11z" fill="#15A8F7"/>
<path transform="translate(799,1142)" d="m0 0h17l5 1-1 2h-4v9l-1 6h-1l-2-10-4-4-7-2z" fill="#07D8FB"/>
<path transform="translate(778,992)" d="m0 0 2 1-4 5 5 12 2 4 7 1v1h-8l-5-3-5-10 1-5z" fill="#0AD3FB"/>
<path transform="translate(735,633)" d="m0 0 5 1 19 7-4 3-7-2-2 1-1 2-10-10z" fill="#1993F1"/>
<path transform="translate(1,1024)" d="m0 0h2l4 10v3h2l1 9h-3l-2-7-5-1v-13z" fill="#151920"/>
<path transform="translate(653,467)" d="m0 0h5l1 4-11 11h-2l-1-5 6-8h2z" fill="#129AEF"/>
<path transform="translate(673,853)" d="m0 0 2 2v15l-1 26-1 8h-1v-35z" fill="#15B2FA"/>
<path transform="translate(1017,661)" d="m0 0h2v6l-3 3h-3l-1 10-1 34h-1v-44z" fill="#2388F2"/>
<path transform="translate(583,658)" d="m0 0 8 1 3 3 1 5-3 3-5-2v-2h-2l-1-5h-2z" fill="#0DA1EF"/>
<path transform="translate(923,1143)" d="m0 0 2 1-2 4 4 7-2 2-3-4-10 1v-3l4-5z" fill="#04DFFC"/>
<path transform="translate(1249,1143)" d="m0 0h12l4 2-1 6-3 1-10-5-5-2z" fill="#04DFFC"/>
<path transform="translate(646,1147)" d="m0 0 2 1-1 3 5 1-1 2-7 1-6 7-2 2-1-2-3-1v-9h1l1 7 9-10z" fill="#06CFF9"/>
<path transform="translate(881,81)" d="m0 0 5 1 2 1 15 1 10 1 6 2-2 2-10-1-1-1-20-1-5-2z" fill="#161A21"/>
<path transform="translate(1131,1221)" d="m0 0h14l4 2h5l-3 2-4 1h-17l-4-2 5-1z" fill="#08C4FA"/>
<path transform="translate(1082,615)" d="m0 0 4 3 1 9-4 5-4-1 2-15z" fill="#05B9F7"/>
<path transform="translate(831,764)" d="m0 0 14 7 17 10-4 1-15-8-10-6z" fill="#0CADF6"/>
<path transform="translate(1506,1156)" d="m0 0 1 4-4 8-4 9-5 8-1 2-2-2 4-6 3-9 4-7 2-5z" fill="#15191F"/>
<path transform="translate(977,670)" d="m0 0 2 1-1 3-5 5-8 10-6 1 6-7 7-8z" fill="#109EF0"/>
<path transform="translate(1148,1176)" d="m0 0h1v6l23 1v1h-44l3-2 4-1h13z" fill="#15A8F8"/>
<path transform="translate(692,1150)" d="m0 0 4 5-7 6-3 6-1-2-3-1-1-2v-6h1l1 5 4-5z" fill="#0BC1FA"/>
<path transform="translate(1517,1128)" d="m0 0 3 1-3 9-7 14h-2l1-6 5-11z" fill="#151920"/>
<path transform="translate(346,1127)" d="m0 0h11l9 2v1h-10v3l-4 1-8-3v-3z" fill="#06DDFC"/>
<path transform="translate(1045,1128)" d="m0 0h19v2l-5 1-2 3-19-3v-1z" fill="#04E2FD"/>
<path transform="translate(657,1142)" d="m0 0h11v1h-8v2l-7 2 2 8h-3v-3h-6l1-4 4-4z" fill="#03E1FC"/>
<path transform="translate(708,839)" d="m0 0h3l1 3v14l-1 5-3 2z" fill="#00F0FE"/>
<path transform="translate(74,699)" d="m0 0 3 4 1 3-2 2-1 12-4 9-2 1 1-9v-3h2l1-15z" fill="#161A21"/>
<path transform="translate(1163,1207)" d="m0 0h3v3h2v5l-9 3v-2l-2-1 2-4z" fill="#00FDFE"/>
<path transform="translate(543,1143)" d="m0 0h10l10 4-4 1-7-1v2h-2l-1 3-5-5z" fill="#03E3FC"/>
<path transform="translate(650,918)" d="m0 0 3 2 1 5-6 6-2 3-1-2v-7z" fill="#03CFFB"/>
<path transform="translate(814,1175)" d="m0 0h1v38l-8 5v-2l-3-1 9-6z" fill="#2194F7"/>
<path transform="translate(983,829)" d="m0 0 2 3v2h2v14l-1 2h-2l-1 2z" fill="#00EFFD"/>
<path transform="translate(698,764)" d="m0 0 4 1 14 14 7 8h-3l-14-14-4-2z" fill="#0FABF7"/>
<path transform="translate(706,494)" d="m0 0 2 3-3 2-2 1v3h-2v3h-2l1 4-6 5-6 9-1-2 12-19 6-8z" fill="#3573F5"/>
<path transform="translate(1569,931)" d="m0 0h1l-2 25-2 1-2-3 1-8 1-5 1-2 1-7z" fill="#15181F"/>
<path transform="translate(1528,1102)" d="m0 0h2l-2 9-5 13h-3l3-11 4-10z" fill="#151920"/>
<path transform="translate(602,677)" d="m0 0 3 2v3h2l2 9 2 4-5-2-3-4-2-9z" fill="#1597F0"/>
<path transform="translate(907,881)" d="m0 0h3l2 4v5l-6 2-2-6 1-4z" fill="#01EAFD"/>
<path transform="translate(1046,40)" d="m0 0 15 2 2 1-1 4-6-1-9-2-3-3z" fill="#161A21"/>
<path transform="translate(916,966)" d="m0 0h1l1 11v34l2 5h-3l-1-4z" fill="#06CDFB"/>
<path transform="translate(69,738)" d="m0 0 3 3-1 2h-2l1 6 2 6-4 3-1-7-2-4 3-8z" fill="#161A21"/>
<path transform="translate(1051,839)" d="m0 0 2 3-1 4-1 1h-9l-1-3 1-2z" fill="#02E8FD"/>
<path transform="translate(1121,1576)" d="m0 0 3 1-2 1-1 3-10 2-2 1-6 1-1 2h-2l-1-3 5-1v-2h5l3-3 8 1z" fill="#161A21"/>
<path transform="translate(1481,1206)" d="m0 0h3l-2 5-5 9h-2l-1 4-2-1 2-6z" fill="#15181E"/>
<path transform="translate(1337,1161)" d="m0 0 4 2-5 11-2 6-1-4 1-2h-3v-5h2z" fill="#0FBBFA"/>
<path transform="translate(882,894)" d="m0 0m-1 1m-1 1m-1 1m-1 1m-1 1m-1 1m-1 1m-2 1 2 1-12 12-2 8-4-4v-2l8-7z" fill="#14B3FA"/>
<path transform="translate(652)" d="m0 0 1 2-1 2-6 2-2 3-11 2 5-5 5-1 1-2 3-2 3 1z" fill="#161A21"/>
<path transform="translate(1560,983)" d="m0 0 1 2 2 1-2 10-1 4-1 7-2-4v-7l2-10z" fill="#151920"/>
<path transform="translate(214,444)" d="m0 0 2 2-2 6h-2l-2 4-3 7-3 1-1-3 4-5 6-11z" fill="#151920"/>
<path transform="translate(754,991)" d="m0 0h1l1 23 5 4 1 3h-3l-1-3-5-2-1-1v-5h1z" fill="#17B6F9"/>
<path transform="translate(680,883)" d="m0 0 2 4v23l-2 4-1-5z" fill="#16AFF9"/>
<path transform="translate(1076,565)" d="m0 0h2l1 5-1 37h-1l-1-25z" fill="#3871F6"/>
<path transform="translate(314,1214)" d="m0 0 8 5 4 2-1 2h-13l3-3z" fill="#03DFFC"/>
<path transform="translate(315,1127)" d="m0 0h11v2l-10 5-2-3h-2l-1-3z" fill="#08C8FA"/>
<path transform="translate(998,529)" d="m0 0h5l5 6v2h2v2h2l-1 2h-3l-10-11z" fill="#3277F5"/>
<path transform="translate(983,777)" d="m0 0 5 2 2 3v12l-2-1-1-11h-4l-2 3-1-1v-5z" fill="#0AB3F7"/>
<path transform="translate(1078,490)" d="m0 0 4 2 15 15-2 2-17-17z" fill="#3079F4"/>
<path transform="translate(1387,1212)" d="m0 0h1v11h-27v-10h1l2 7 1 1h21z" fill="#01E3FD"/>
<path transform="translate(812,1160)" d="m0 0h2l1 4-9 4-4 1-1-2 1-3z" fill="#0CBCF9"/>
<path transform="translate(12,822)" d="m0 0 3 1v8l-3 4h-2l-1-6z" fill="#161A21"/>
<path transform="translate(1057,698)" d="m0 0h7l6 4 4 6v6l-1 3 1 2h-3v-11l-4-6-4-2-6-1z" fill="#1C8FF1"/>
<path transform="translate(809,945)" d="m0 0h8v1l-7 2-9 8-1 5h-1v-8l8-7z" fill="#0BBEF9"/>
<path transform="translate(955,850)" d="m0 0h1v21l-2 2-1-2v-9l1-11z" fill="#01D6FC"/>
<path transform="translate(11,857)" d="m0 0h1l2 12-3 4h-2l-1-6z" fill="#161A21"/>
<path transform="translate(1103,515)" d="m0 0h1v7l4 2 4 6 1 6-3-1-3-7-5-5-1-6h2z" fill="#3573F5"/>
<path transform="translate(1447,1261)" d="m0 0h4v2h-2l-2 6-6 9-1-3v-3h2l1-2 1-4z" fill="#15191F"/>
<path transform="translate(1534,1082)" d="m0 0 3 1-1 6-5 13-2-1 1-8h2l1-6z" fill="#151920"/>
<path transform="translate(839,81)" d="m0 0h31v2l-7 2-11-1-13-2z" fill="#161A21"/>
<path transform="translate(1007,924)" d="m0 0 4 1 2 3v4h-2v3h-4v-6l-1-4z" fill="#00FEFF"/>
<path transform="translate(646,776)" d="m0 0h8l6 3 3 5-1 4v-2h-2l-5-5-3-2v-2h-6z" fill="#0CADF6"/>
<path transform="translate(530,164)" d="m0 0 3 1-4 3 1 2-12 6-3-1 6-3v-3z" fill="#151920"/>
<path transform="translate(876,9)" d="m0 0 2 1v3l3 1-2 1h-12l1-4 7-1z" fill="#161A21"/>
<path transform="translate(625,841)" d="m0 0 4 2-2 4-7 1-1-4z" fill="#03E3FC"/>
<path transform="translate(12,637)" d="m0 0 5 2 1 4-1 2-7-1v-6z" fill="#161A21"/>
<path transform="translate(820,8)" d="m0 0 5 2h2v-2l3 1v4l-10 1-3-2z" fill="#161A21"/>
<path transform="translate(941,935)" d="m0 0h3v2l5 1 3 3 1 5-5-2-7-8z" fill="#00F9FE"/>
<path transform="translate(977,497)" d="m0 0 5 2 5 6-3-1 2 5 1 4-4-4-6-10z" fill="#161A21"/>
<path transform="translate(434,1167)" d="m0 0 1 3 2 1-4 8-2 3v-3h-3v-6l2 3z" fill="#0FB7F8"/>
<path transform="translate(1266,1155)" d="m0 0 9 1v7h-3l-6-7z" fill="#09D3FB"/>
<path transform="translate(707,961)" d="m0 0 3 3v2l4 2 3 4 1 6h-2v-4h-2l-4-4v-2h-2l-2-5z" fill="#09D4FB"/>
<path transform="translate(990,740)" d="m0 0h5l5 5 2 4-2 2-10-10z" fill="#04B7F6"/>
<path transform="translate(1051,659)" d="m0 0 2 4 1 6 5 5-2 2-7-6v-10z" fill="#119CEF"/>
<path transform="translate(534,1221)" d="m0 0 12 2-1 2h-14l-4-2z" fill="#05D5FB"/>
<path transform="translate(1209,1152)" d="m0 0 2 1-4 7-3 3-2 7-3 1 1-6 7-11z" fill="#04DFFB"/>
<path transform="translate(17,793)" d="m0 0h1v5l-6 4-2-1 1-5 2-2z" fill="#161A21"/>
<path transform="translate(904,12)" d="m0 0h2v2l4 1 3 3-2 2-6-1-1-5-2-1z" fill="#161A21"/>
<path transform="translate(950,1623)" d="m0 0 5 1 1 2-7 2-2-1-12-1v-2h14z" fill="#151920"/>
<path transform="translate(1128,1142)" d="m0 0h14l6 1v1l-7 2 1 2-8-2 1-3h-7z" fill="#0EBAF7"/>
<path transform="translate(62,876)" d="m0 0 2 4-1 4 3 1 1 4-4 3-2-1v-9z" fill="#151920"/>
<path transform="translate(841,739)" d="m0 0 4 4 5 3 4 7-4-2-7-5z" fill="#0DACF6"/>
<path transform="translate(229,423)" d="m0 0 2 2-1 4-6 7-4 1v-2h2l1-4 4-2 1-4z" fill="#15191F"/>
<path transform="translate(887,1630)" d="m0 0h5l2 2 9-2 1 2-7 2-7 1-4-2z" fill="#161A21"/>
<path transform="translate(1150,1565)" d="m0 0 1 2-4 4-4-1-5 3h-5l-2 1 2-4 9-2 7-2z" fill="#161A21"/>
<path transform="translate(705,1192)" d="m0 0h1v27h2v3l4 1h-7z" fill="#00EDFD"/>
<path transform="translate(664,914)" d="m0 0 2 1-1 4-3 1-4-2h-7l1-2z" fill="#06C9FB"/>
<path transform="translate(65,774)" d="m0 0 3 4-3 7-2 9-2 2 2-16z" fill="#161A21"/>
<path transform="translate(816,717)" d="m0 0h4v10h-3l-2 3v-8z" fill="#06C8FA"/>
<path transform="translate(1240,1222)" d="m0 0 4 1zm-11 1h11v2l6-1 9 1v1l-11 1-15-3z" fill="#10B3F8"/>
<path transform="translate(464,1143)" d="m0 0 7 1-2 11-5-10z" fill="#06D6FB"/>
<path transform="translate(978,1132)" d="m0 0h1l1 5 6-2v3l-6 5h-2z" fill="#16ADF9"/>
<path transform="translate(770,646)" d="m0 0 5 1 11 4-1 2-8-2-5-1-3-3z" fill="#1796F0"/>
<path transform="translate(652,635)" d="m0 0h2l1 6v3h-2v-2l-5-1v-5z" fill="#04B9F7"/>
<path transform="translate(1241,1141)" d="m0 0 14 1v1l-7 2v1h-5l1-2-13-1v-1z" fill="#16A0F7"/>
<path transform="translate(1571,892)" d="m0 0 2 1v5 1 7l-2 3-2-6 1-10z" fill="#15191F"/>
<path transform="translate(652,844)" d="m0 0 2 1v14l-2 1-1-3v-11z" fill="#02D4FC"/>
<path transform="translate(885,795)" d="m0 0 6 2 14 8-4 1-4-3-7-3v-2l-5-1z" fill="#0DABF6"/>
<path transform="translate(556,780)" d="m0 0h2l-1 10-2 5-2-3-1-4z" fill="#0BAFF6"/>
<path transform="translate(147,571)" d="m0 0 2 1-1 5-3 8h-3l2-9z" fill="#151920"/>
<path transform="translate(288,1140)" d="m0 0 2 1-3 5-2 3h-2v3l-4 1 2-5z" fill="#0CD1FB"/>
<path transform="translate(963,748)" d="m0 0 2 1 2 7 1 5-1 2h-2v-4h-2z" fill="#03D2FC"/>
<path transform="translate(705,691)" d="m0 0 6 5 1 3-2 8-2-2-1-9-2-2z" fill="#1498F0"/>
<path transform="translate(123,546)" d="m0 0 1 4-5 12-3 4-2-1 5-10z" fill="#161A21"/>
<path transform="translate(822,497)" d="m0 0 4 2 3 4h5l2 1v2l-5 1v-2l-4 2-3-5-2-2z" fill="#0DA1EF"/>
<path transform="translate(1306,1218)" d="m0 0 4 2v2h17v1l-22 1v-5z" fill="#04DDFC"/>
<path transform="translate(646,1147)" d="m0 0 2 1-1 3 5 1-1 2-7 1h-3l-1-3z" fill="#0CC5FA"/>
<path transform="translate(1554,1013)" d="m0 0 2 1-2 13-3 3v-7z" fill="#151920"/>
<path transform="translate(927,88)" d="m0 0h10l7 1 1 1 9 1v1h-10l-4-1h-8l-5-2z" fill="#161A21"/>
<path transform="translate(1118,1180)" d="m0 0 17 1-4 2h-14z" fill="#05D6FB"/>
<path transform="translate(1117,567)" d="m0 0 4 1 5 6 1 8-2 3-1-3-1-10-3-1z" fill="#3871F6"/>
<path transform="translate(681,501)" d="m0 0h2l-2 4-4 6-5 1 2-4z" fill="#3277F5"/>
<path transform="translate(472,189)" d="m0 0 4 1-1 5 1 3-4-1-2-3v-3h2z" fill="#151920"/>
<path transform="translate(997)" d="m0 0h2v2l4 1 2 4-4 1-3-1v-2h-3v-2h2z" fill="#161A21"/>
<path transform="translate(984,1617)" d="m0 0h6l-1 2h-2v2h-8l-6 2-3-2 2-1 5 1v-2h7z" fill="#161A21"/>
<path transform="translate(846,945)" d="m0 0h8l6 4 2 4h-3l-1-3-5-2-7-2z" fill="#0BC4FB"/>
<path transform="translate(845,738)" d="m0 0 7 6 1 3-4-1-6-4z" fill="#00DAFD"/>
<path transform="translate(79,683)" d="m0 0 3 1-2 3-2 7h-2l-1-7z" fill="#161A21"/>
<path transform="translate(1563,964)" d="m0 0 3 1-1 8-1 3h-2l-1-8z" fill="#161A21"/>
<path transform="translate(1507,552)" d="m0 0 3 1 3 8-1 3-3-3-2-5z" fill="#151920"/>
<path transform="translate(1344,320)" d="m0 0h2v2l4 2 5 6h-3l-9-8z" fill="#151920"/>
<path transform="translate(743,1627)" d="m0 0h5l5 2 3 1 1-2h2l-2 4h-8l-2-2-6-1z" fill="#161A21"/>
<path transform="translate(556,1216)" d="m0 0 2 1v4l5 1-3 2h-8l3-7z" fill="#06DBFC"/>
<path transform="translate(65,941)" d="m0 0h1l3 19-2 3-1-2z" fill="#161A21"/>
<path transform="translate(767,851)" d="m0 0 5 2 5 6-1 2-4-1z" fill="#08C6FA"/>
<path transform="translate(1091,776)" d="m0 0v3l-5 5-1 5 1 5-2 1-1-3v-7l7-8z" fill="#14A5F6"/>
<path transform="translate(1038,1606)" d="m0 0h6l-4 2-5 2-13 1 2-2 9-1z" fill="#161A21"/>
<path transform="translate(681,1156)" d="m0 0h1l1 5 6-2-2 6-2 2v-2l-3-1-1-2z" fill="#04DAFB"/>
<path transform="translate(534,1142)" d="m0 0h13l-3 2v2l-9 1v-2h4v-2h-5z" fill="#12ABF6"/>
<path transform="translate(677,777)" d="m0 0 4 1 2 1-1 8-2-3-2-5-5 4 2-4z" fill="#13A6F7"/>
<path transform="translate(729,567)" d="m0 0h7l5 1-2 2 1 2-8-1z" fill="#3573F5"/>
<path transform="translate(556,157)" d="m0 0 2 1-10 5-4-1 2-1-3-1v-2h7 2z" fill="#15191F"/>
<path transform="translate(1509,1133)" d="m0 0h2l-1 6-4 9-2 2 2-9 3-7z" fill="#161A21"/>
<path transform="translate(299,1133)" d="m0 0 2 1-5 5-5 2v-3z" fill="#06DCFB"/>
<path transform="translate(1569,931)" d="m0 0h1l-1 16-3-1v-5l1-2 1-7z" fill="#161A21"/>
<path transform="translate(11,885)" d="m0 0 4 2-1 8-1-2-3-1v-6z" fill="#161A21"/>
<path transform="translate(711,810)" d="m0 0 4 3v23h-1l-1-21-2-2z" fill="#09B2F7"/>
<path transform="translate(1073,44)" d="m0 0h4l1 3-1 2h-2l-1 2-3-2v-4z" fill="#161A21"/>
<path transform="translate(916,901)" d="m0 0h8l6 4 1 2-4-1-2-2-11-1z" fill="#169FF6"/>
<path transform="translate(658,646)" d="m0 0 8 6v3l4 2-1 2-6-5v-2h-2v-2h-2z" fill="#03BDF8"/>
<path transform="translate(0,578)" d="m0 0 3 1 1 7h-2v2h-2z" fill="#151920"/>
<path transform="translate(572,524)" d="m0 0 4 4 2 4-1 8-2-2-1-8-2-3z" fill="#3871F6"/>
<path transform="translate(822,1666)" d="m0 0h3l1 3-1 3-6-1-1-3z" fill="#161A21"/>
<path transform="translate(1131,1221)" d="m0 0 9 1v1l-5 1 1 2-10-1 3-2h2z" fill="#15A9F7"/>
<path transform="translate(760,41)" d="m0 0 11 1-4 2-9 1-3 1 1-3z" fill="#161A21"/>
<path transform="translate(916,1628)" d="m0 0 6 2v1l-9 1-6-2v-1z" fill="#161A21"/>
<path transform="translate(66,963)" d="m0 0 2 3 1 7v8h-1l-2-11z" fill="#161A21"/>
<path transform="translate(862,913)" d="m0 0 2 1-2 6-2 3-3-4v-2z" fill="#0CC0FA"/>
<path transform="translate(999,787)" d="m0 0 5 3v8h-2l-3-7z" fill="#0EABF6"/>
<path transform="translate(651,789)" d="m0 0h4v6h-2l-1 3-2-4z" fill="#03BDF8"/>
<path transform="translate(752,86)" d="m0 0h10l-1 2-11 1h-3v-2z" fill="#161A21"/>
<path transform="translate(1385,1344)" d="m0 0 2 2-2 3h-2l-2 5-3-1 2-4h2l2-4z" fill="#161A21"/>
<path transform="translate(691,768)" d="m0 0 6 1 2 2v5l-7-6z" fill="#12A7F7"/>
<path transform="translate(1081,737)" d="m0 0 5 2 2 2 2 6-7-6z" fill="#0DACF6"/>
<path transform="translate(129,637)" d="m0 0h1v6l-3 9-2 2 1-9z" fill="#161A21"/>
<path transform="translate(112,569)" d="m0 0 1 3-2 10-2 2v-10z" fill="#161A21"/>
<path transform="translate(209,453)" d="m0 0 2 2-4 8-3 1-1-3 4-5z" fill="#161A21"/>
<path transform="translate(822,80)" d="m0 0 7 1 2 2h-16l4-2z" fill="#161A21"/>
<path transform="translate(973,23)" d="m0 0 5 1 1 4-9-2z" fill="#161A21"/>
<path transform="translate(1488,1192)" d="m0 0 2 2-1 5-3 4-2-1z" fill="#151920"/>
<path transform="translate(430,1164)" d="m0 0h1l1 5 1 2-3 6h-1v-10z" fill="#161A21"/>
<path transform="translate(1298,281)" d="m0 0 5 1 3 4-1 3v-2l-4-1z" fill="#161A21"/>
<path transform="translate(877,1630)" d="m0 0 4 1 1 2-10 2-3-2 7-2z" fill="#15191F"/>
<path transform="translate(1e3 1613)" d="m0 0v3h-2l-2 4-6-1 4-1v-2h2v-2z" fill="#161A21"/>
<path transform="translate(902,1166)" d="m0 0h2l-1 4-2 3-1-2-4 2v-5l2 2z" fill="#0AC6FA"/>
<path transform="translate(799,1142)" d="m0 0h9l2 4-8-1z" fill="#0FA6F4"/>
<path transform="translate(372,1131)" d="m0 0h1v15h-4l-2-3 5 1z" fill="#18A1F6"/>
<path transform="translate(627,718)" d="m0 0h9l-2 2-6 1h-6l2-2z" fill="#1597F0"/>
<path transform="translate(34,702)" d="m0 0 1 2 3 1-1 6-1-4h-3l-1 2v-3z" fill="#161A21"/>
<path transform="translate(760,642)" d="m0 0 9 3v1l-7 1-3-2z" fill="#1695F0"/>
<path transform="translate(106,586)" d="m0 0 1 2-3 9-3-1 4-9z" fill="#161A21"/>
<path transform="translate(1282,267)" d="m0 0 5 3 4 4-2 1-8-6z" fill="#161A21"/>
<path transform="translate(773,83)" d="m0 0 9 1-2 3-5-1-4-2z" fill="#161A21"/>
</svg>
